<svg width="800" height="827" viewBox="0 0 800 827" fill="none" xmlns="http://www.w3.org/2000/svg">
<path opacity="0.1" d="M182.736 339.686C383.122 101.108 642.587 -93.5133 682.15 108.509C721.712 310.531 879.902 774.74 598.737 642.586C317.571 510.432 19.5992 750.02 178.873 544.946C359.484 312.474 -4.9259 563.257 182.736 339.686Z" stroke="#C5A96E" stroke-width="1.056"/>
<path opacity="0.2" d="M194.108 337.75C378.943 118.774 620.863 -59.4348 657.6 128.477C694.338 316.388 847.564 744.638 586.252 620.902C331.599 500.918 55.2406 720.853 203.004 529.591C369.433 314.038 21.5103 542.197 194.108 337.75Z" stroke="#C5A96E" stroke-width="1.056"/>
<path opacity="0.3" d="M205.285 335.716C374.716 136.295 598.945 -25.4539 632.857 148.347C666.77 322.147 814.985 714.294 573.621 599.265C345.626 491.404 90.8798 691.687 226.795 514.186C379.234 315.649 47.9444 521.137 205.285 335.716Z" stroke="#C5A96E" stroke-width="1.056"/>
<path opacity="0.4" d="M204.156 337.682C363.888 155.961 577.568 8.35145 608.13 168.372C638.691 328.393 782.96 683.611 556.041 579.397C350.067 484.845 108.79 668.281 237.837 503.244C381.829 319.763 56.6667 505.833 204.156 337.682Z" stroke="#C5A96E" stroke-width="1.056"/>
<path opacity="0.5" d="M227.835 331.747C366.166 171.528 555.158 42.6524 583.612 188.329C612.114 334.151 750.553 653.372 548.601 556.234C373.924 472.137 162.208 633.497 274.859 483.861C399.177 318.922 100.816 479.018 227.835 331.747Z" stroke="#C5A96E" stroke-width="1.056"/>
<path opacity="0.6" d="M239.013 329.714C361.939 189.049 533.241 76.6333 559.062 208.297C584.738 340.008 718.12 622.981 536.115 534.55C388.097 462.576 197.994 604.283 298.797 468.409C408.98 320.533 127.251 457.958 239.013 329.714Z" stroke="#C5A96E" stroke-width="1.056"/>
<path opacity="0.7" d="M250.238 327.825C357.661 206.907 511.37 110.759 534.366 228.312C557.362 345.865 685.588 592.782 523.532 513.058C402.026 453.253 233.68 575.261 322.828 453.246C418.974 322.242 153.685 436.898 250.238 327.825Z" stroke="#C5A96E" stroke-width="1.056"/>
<path opacity="0.8" d="M261.418 325.792C353.436 224.428 489.501 144.884 509.672 248.327C529.844 351.769 653.105 562.728 510.903 491.421C415.957 443.931 269.131 545.996 346.669 437.986C428.923 323.806 180.267 415.791 261.418 325.792Z" stroke="#C5A96E" stroke-width="1.056"/>
<path opacity="0.9" d="M272.741 323.711C349.209 241.949 467.729 178.818 485.122 268.294C502.515 357.771 620.621 532.673 498.465 469.882C429.934 434.753 304.963 516.927 370.654 422.678C438.871 325.37 206.702 394.731 272.741 323.711Z" stroke="#C5A96E" stroke-width="1.056"/>
<path d="M283.967 321.823C345.03 259.614 445.859 212.944 460.572 288.262C475.285 363.581 587.989 503.147 486.027 448.343C443.958 425.72 340.65 487.905 394.83 407.468C449.01 327.032 233.138 373.671 283.967 321.823Z" stroke="#C5A96E" stroke-width="1.056"/>
</svg>
