<svg width="1440" height="897" viewBox="0 0 1440 897" fill="none" xmlns="http://www.w3.org/2000/svg">
<mask id="mask0_6031_201" style="mask-type:luminance" maskUnits="userSpaceOnUse" x="0" y="0" width="1440" height="897">
<rect width="1440" height="897" fill="white"/>
</mask>
<g mask="url(#mask0_6031_201)">
<g opacity="0.6">
<path fill-rule="evenodd" clip-rule="evenodd" d="M-73.806 746.968C-76.8938 759.795 -42.36 771.973 -23.9483 787.118C-5.53662 802.263 -11.9633 822.87 -0.818581 825.864C22.3541 832.091 26.0145 790.74 54.2702 781.383C82.526 772.026 123.902 808.867 125.974 781.383C126.944 768.517 100.084 757.502 86.0942 740.968C72.1042 724.434 71.4246 690.984 62.6744 687.22C46.2229 680.144 51.2765 727.217 12.1062 740.968C-27.0641 754.719 -67.8573 722.256 -73.806 746.968Z" stroke="#C5A96E" stroke-width="0.5"/>
<path opacity="0.7" fill-rule="evenodd" clip-rule="evenodd" d="M-102.115 741.151C-110.772 756.48 -61.038 776.452 -37.5146 795.788C-13.9913 815.124 -22.4517 847.335 -8.21276 851.158C21.3935 859.108 24.5373 810.416 60.6377 798.47C96.7382 786.524 151.384 823.556 154.032 788.466C155.271 772.04 120.954 757.977 103.079 736.868C85.2052 715.759 88.2062 662.558 68.0936 660.967C30.9056 658.025 53.5516 708.976 3.50627 726.532C-46.5391 744.089 -79.2149 700.602 -102.115 741.151Z" stroke="#C5A96E" stroke-width="0.6"/>
<path opacity="0.7" fill-rule="evenodd" clip-rule="evenodd" d="M-127.853 737.778C-138.252 756.148 -78.5136 780.084 -50.2585 803.257C-22.0034 826.43 -28.9282 868.986 -11.8251 873.568C23.7364 883.096 20.9599 824.186 64.322 809.869C107.684 795.552 157.281 835.861 173.912 795.766C182.538 774.97 140.086 757.943 118.616 732.645C97.1465 707.348 91.7955 640.837 67.6372 638.93C22.9688 635.404 56.1319 691.006 -3.98006 712.046C-64.092 733.087 -100.347 689.182 -127.853 737.778Z" stroke="#C5A96E" stroke-width="0.6"/>
<path opacity="0.4" fill-rule="evenodd" clip-rule="evenodd" d="M-152.353 733.362C-164.823 755.415 -99.0352 784.785 -65.1507 812.603C-31.2662 840.42 -39.5707 891.506 -19.0601 897.007C23.5865 908.444 20.2569 837.726 72.2582 820.539C124.26 803.353 174.739 854.943 194.683 806.811C205.028 781.847 163.117 758.205 137.37 727.837C111.623 697.469 95.1534 613.072 66.182 610.783C12.6141 606.55 62.4364 677.851 -9.65201 703.109C-81.7404 728.367 -119.366 675.026 -152.353 733.362Z" stroke="#C5A96E" stroke-width="0.6"/>
<path opacity="0.4" fill-rule="evenodd" clip-rule="evenodd" d="M-178.359 728.743C-191.084 756.029 -123.32 790.138 -82.6352 823.491C-41.9503 856.844 -51.7574 918.355 -27.1304 924.95C24.0751 938.663 19.9225 861.06 82.3601 840.454C144.798 819.847 205.563 874.516 229.51 816.807C241.93 786.875 187.802 765.154 156.888 728.743C125.974 692.332 97.3877 577.898 62.602 575.153C-1.71672 570.079 63.9547 660.324 -22.6014 690.608C-109.157 720.892 -147.881 663.39 -178.359 728.743Z" stroke="#C5A96E" stroke-width="0.6"/>
<path opacity="0.4" fill-rule="evenodd" clip-rule="evenodd" d="M-208.848 724.002C-224.122 756.724 -152.88 797.627 -104.044 837.625C-55.2065 877.622 -66.9786 951.386 -37.4171 959.295C24.0485 975.739 19.0637 882.678 94.0121 857.967C168.96 833.256 241.902 898.814 270.646 829.61C285.555 793.715 220.582 767.666 183.473 724.002C146.365 680.338 92.8475 541.164 51.0916 537.873C-26.1146 531.787 71.9187 641.954 -31.9807 678.271C-135.88 714.587 -172.263 645.631 -208.848 724.002Z" stroke="#C5A96E" stroke-width="0.6"/>
<path opacity="0.3" fill-rule="evenodd" clip-rule="evenodd" d="M-256.691 718.704C-276.807 757.29 -189.52 807.004 -130.906 854.974C-72.2917 902.943 -86.4205 991.41 -50.941 1000.9C22.8298 1020.62 16.8471 909.008 106.8 879.371C196.752 849.734 284.296 928.36 318.795 845.361C336.689 802.312 258.708 771.071 214.171 718.704C169.633 666.337 106.8 489.39 31.0998 501.925C-60.2829 517.057 65.1405 621.016 -59.559 664.571C-184.259 708.127 -202.579 614.906 -256.691 718.704Z" stroke="#C5A96E" stroke-width="0.6"/>
<path opacity="0.2" fill-rule="evenodd" clip-rule="evenodd" d="M-314.463 711.648C-338.592 757.942 -233.888 817.588 -163.578 875.141C-93.2687 932.694 -110.217 1038.84 -67.6576 1050.22C20.8334 1073.88 13.6569 939.97 121.559 904.412C229.461 868.854 334.473 963.188 375.856 863.608C397.32 811.958 303.779 774.477 250.355 711.648C196.93 648.818 109.31 431.506 10.6365 450.157C-98.4008 470.766 65.7484 588.925 -83.8337 641.181C-233.416 693.438 -249.553 587.112 -314.463 711.648Z" stroke="#C5A96E" stroke-width="0.6"/>
</g>
</g>
</svg>
