<svg width="48" height="48" viewBox="0 0 48 48" fill="none" xmlns="http://www.w3.org/2000/svg">
<path fill-rule="evenodd" clip-rule="evenodd" d="M47.9805 29.977C47.8807 29.3435 47.4111 28.8317 46.7887 28.6777C46.6843 28.652 38.2481 26.533 32.0499 22.7187L25.2821 15.9493C21.4719 9.75414 19.3479 1.31542 19.3221 1.21144C19.1683 0.588897 18.6563 0.119268 18.0228 0.019479C17.3895 -0.0803097 16.7579 0.209125 16.42 0.754134L14.3766 4.04955C13.2181 3.00512 11.4756 2.50941 10.0519 2.88547L9.93549 2.91646C4.89004 4.46199 1.68602 7.666 0.140481 12.7113L0.109611 12.8278C-0.244677 14.4004 0.276165 16.1661 1.43654 17.3266C1.52377 17.4138 1.6153 17.4981 1.70839 17.5769L1.74357 17.6057C5.58138 20.6725 9.31857 23.9161 12.9021 27.287C9.69092 29.067 6.89946 29.9519 4.76632 29.857C4.41107 29.8411 4.08682 30.0584 3.96609 30.3929C3.84536 30.7275 3.95604 31.1016 4.23961 31.3165L6.64855 33.1424L3.91524 35.7647C3.6806 35.9898 3.60283 36.3331 3.71745 36.6373C3.75909 36.7478 3.82299 36.8451 3.90315 36.9253C4.04398 37.0662 4.23483 37.1533 4.4417 37.1624C6.85579 37.2697 9.51169 36.7517 12.3794 35.6202C11.2478 38.4879 10.7299 41.1437 10.8372 43.5577C10.8464 43.7646 10.9336 43.9556 11.0745 44.0964C11.1546 44.1766 11.2521 44.2405 11.3626 44.2821C11.6667 44.3967 12.0101 44.3192 12.2352 44.0846L14.8576 41.351L16.6832 43.7603C16.8981 44.0435 17.2721 44.1546 17.6067 44.0335C17.9411 43.9128 18.1583 43.5884 18.1425 43.2333C18.0477 41.1001 18.9327 38.3085 20.7127 35.0971C24.0854 38.6823 27.3292 42.4195 30.3942 46.2561L30.4233 46.292C30.5019 46.3846 30.5859 46.4758 30.6728 46.5631C31.8332 47.7235 33.5992 48.2446 35.1719 47.8905L35.2889 47.8595C40.3346 46.3133 43.5385 43.1094 45.0836 38.0643C45.0836 38.0643 45.9254 35.5257 43.9505 33.6235L47.246 31.5803C47.7909 31.2419 48.0803 30.6105 47.9805 29.977ZM17.2415 5.48047C17.5581 6.47321 17.9484 7.62317 18.4107 8.85893C17.7794 8.11697 17.1538 7.37059 16.5352 6.61942L17.2415 5.48047ZM3.75493 15.1325C7.8689 18.421 11.8693 21.909 15.6929 25.5382L22.7616 18.4695C19.5845 15.1223 16.5169 11.6396 13.5966 8.06436L13.1124 7.47042C12.8593 7.15789 12.6071 6.84488 12.3563 6.53116C11.904 5.95923 11.2535 5.83467 10.8008 5.98567C6.79897 7.22992 4.45357 9.57543 3.20944 13.5769C3.05987 14.0706 3.31533 14.6971 3.69043 15.0722C3.71149 15.0932 3.73315 15.1135 3.75493 15.1325ZM42.0149 37.1986C40.7711 41.1998 38.4258 43.5456 34.4241 44.7899C33.934 44.8963 33.3034 44.6838 32.9283 44.3088C32.9074 44.2876 32.887 44.2665 32.8684 44.2448C29.5821 40.1323 26.0941 36.1316 22.4629 32.3066L29.5314 25.2383C32.8791 28.4163 36.3621 31.4838 39.9372 34.4039L40.5305 34.8874C40.8428 35.1405 41.1561 35.3929 41.4702 35.6436C41.4919 35.6624 41.5133 35.6825 41.5342 35.7035C41.9089 36.0783 42.1525 36.7188 42.0149 37.1986ZM39.1406 29.5898C39.8828 30.2216 40.6295 30.847 41.3804 31.4656L42.5196 30.7592C41.5268 30.4425 40.3766 30.0522 39.1406 29.5898Z" fill="#416FF4"/>
</svg>
