<svg width="189" height="117" viewBox="0 0 189 117" fill="none" xmlns="http://www.w3.org/2000/svg">
<g opacity="0.2">
<path d="M108.525 2.44287C108.525 3.54744 107.63 4.44287 106.525 4.44287C105.421 4.44287 104.525 3.54744 104.525 2.44287C104.525 1.3383 105.421 0.442871 106.525 0.442871C107.63 0.442871 108.525 1.3383 108.525 2.44287Z" fill="#0D152E"/>
<path d="M106.525 20.4429C107.63 20.4429 108.525 19.5474 108.525 18.4429C108.525 17.3383 107.63 16.4429 106.525 16.4429C105.421 16.4429 104.525 17.3383 104.525 18.4429C104.525 19.5474 105.421 20.4429 106.525 20.4429Z" fill="#0D152E"/>
<path d="M122.525 20.4429C123.63 20.4429 124.525 19.5474 124.525 18.4429C124.525 17.3383 123.63 16.4429 122.525 16.4429C121.421 16.4429 120.525 17.3383 120.525 18.4429C120.525 19.5474 121.421 20.4429 122.525 20.4429Z" fill="#0D152E"/>
<path d="M140.525 18.4429C140.525 19.5474 139.63 20.4429 138.525 20.4429C137.421 20.4429 136.525 19.5474 136.525 18.4429C136.525 17.3383 137.421 16.4429 138.525 16.4429C139.63 16.4429 140.525 17.3383 140.525 18.4429Z" fill="#0D152E"/>
<path d="M154.525 20.4429C155.63 20.4429 156.525 19.5474 156.525 18.4429C156.525 17.3383 155.63 16.4429 154.525 16.4429C153.421 16.4429 152.525 17.3383 152.525 18.4429C152.525 19.5474 153.421 20.4429 154.525 20.4429Z" fill="#0D152E"/>
<path d="M172.525 18.4429C172.525 19.5474 171.63 20.4429 170.525 20.4429C169.421 20.4429 168.525 19.5474 168.525 18.4429C168.525 17.3383 169.421 16.4429 170.525 16.4429C171.63 16.4429 172.525 17.3383 172.525 18.4429Z" fill="#0D152E"/>
<path d="M186.525 20.4429C187.63 20.4429 188.525 19.5474 188.525 18.4429C188.525 17.3383 187.63 16.4429 186.525 16.4429C185.421 16.4429 184.525 17.3383 184.525 18.4429C184.525 19.5474 185.421 20.4429 186.525 20.4429Z" fill="#0D152E"/>
<path d="M122.525 4.44287C123.63 4.44287 124.525 3.54744 124.525 2.44287C124.525 1.3383 123.63 0.442871 122.525 0.442871C121.421 0.442871 120.525 1.3383 120.525 2.44287C120.525 3.54744 121.421 4.44287 122.525 4.44287Z" fill="#0D152E"/>
<path d="M140.525 2.44287C140.525 3.54744 139.63 4.44287 138.525 4.44287C137.421 4.44287 136.525 3.54744 136.525 2.44287C136.525 1.3383 137.421 0.442871 138.525 0.442871C139.63 0.442871 140.525 1.3383 140.525 2.44287Z" fill="#0D152E"/>
<path d="M154.525 4.44287C155.63 4.44287 156.525 3.54744 156.525 2.44287C156.525 1.3383 155.63 0.442871 154.525 0.442871C153.421 0.442871 152.525 1.3383 152.525 2.44287C152.525 3.54744 153.421 4.44287 154.525 4.44287Z" fill="#0D152E"/>
<path d="M172.525 2.44287C172.525 3.54744 171.63 4.44287 170.525 4.44287C169.421 4.44287 168.525 3.54744 168.525 2.44287C168.525 1.3383 169.421 0.442871 170.525 0.442871C171.63 0.442871 172.525 1.3383 172.525 2.44287Z" fill="#0D152E"/>
<path d="M186.525 4.44287C187.63 4.44287 188.525 3.54744 188.525 2.44287C188.525 1.3383 187.63 0.442871 186.525 0.442871C185.421 0.442871 184.525 1.3383 184.525 2.44287C184.525 3.54744 185.421 4.44287 186.525 4.44287Z" fill="#0D152E"/>
<path d="M2.52539 20.4429C3.62996 20.4429 4.52539 19.5474 4.52539 18.4429C4.52539 17.3383 3.62996 16.4429 2.52539 16.4429C1.42082 16.4429 0.525391 17.3383 0.525391 18.4429C0.525391 19.5474 1.42082 20.4429 2.52539 20.4429Z" fill="#0D152E"/>
<path d="M18.5254 20.4429C19.63 20.4429 20.5254 19.5474 20.5254 18.4429C20.5254 17.3383 19.63 16.4429 18.5254 16.4429C17.4208 16.4429 16.5254 17.3383 16.5254 18.4429C16.5254 19.5474 17.4208 20.4429 18.5254 20.4429Z" fill="#0D152E"/>
<path d="M36.5254 18.4429C36.5254 19.5474 35.63 20.4429 34.5254 20.4429C33.4208 20.4429 32.5254 19.5474 32.5254 18.4429C32.5254 17.3383 33.4208 16.4429 34.5254 16.4429C35.63 16.4429 36.5254 17.3383 36.5254 18.4429Z" fill="#0D152E"/>
<path d="M50.5254 20.4429C51.63 20.4429 52.5254 19.5474 52.5254 18.4429C52.5254 17.3383 51.63 16.4429 50.5254 16.4429C49.4208 16.4429 48.5254 17.3383 48.5254 18.4429C48.5254 19.5474 49.4208 20.4429 50.5254 20.4429Z" fill="#0D152E"/>
<path d="M68.5254 18.4429C68.5254 19.5474 67.63 20.4429 66.5254 20.4429C65.4208 20.4429 64.5254 19.5474 64.5254 18.4429C64.5254 17.3383 65.4208 16.4429 66.5254 16.4429C67.63 16.4429 68.5254 17.3383 68.5254 18.4429Z" fill="#0D152E"/>
<path d="M82.5254 20.4429C83.63 20.4429 84.5254 19.5474 84.5254 18.4429C84.5254 17.3383 83.63 16.4429 82.5254 16.4429C81.4208 16.4429 80.5254 17.3383 80.5254 18.4429C80.5254 19.5474 81.4208 20.4429 82.5254 20.4429Z" fill="#0D152E"/>
<path d="M2.52539 4.44287C3.62996 4.44287 4.52539 3.54744 4.52539 2.44287C4.52539 1.3383 3.62996 0.442871 2.52539 0.442871C1.42082 0.442871 0.525391 1.3383 0.525391 2.44287C0.525391 3.54744 1.42082 4.44287 2.52539 4.44287Z" fill="#0D152E"/>
<path d="M12.5254 34.4429C12.5254 35.5474 11.63 36.4429 10.5254 36.4429C9.42082 36.4429 8.52539 35.5474 8.52539 34.4429C8.52539 33.3383 9.42082 32.4429 10.5254 32.4429C11.63 32.4429 12.5254 33.3383 12.5254 34.4429Z" fill="#0D152E"/>
<path d="M10.5254 52.4429C11.63 52.4429 12.5254 51.5474 12.5254 50.4429C12.5254 49.3383 11.63 48.4429 10.5254 48.4429C9.42082 48.4429 8.52539 49.3383 8.52539 50.4429C8.52539 51.5474 9.42082 52.4429 10.5254 52.4429Z" fill="#0D152E"/>
<path d="M26.5254 52.4429C27.63 52.4429 28.5254 51.5474 28.5254 50.4429C28.5254 49.3383 27.63 48.4429 26.5254 48.4429C25.4208 48.4429 24.5254 49.3383 24.5254 50.4429C24.5254 51.5474 25.4208 52.4429 26.5254 52.4429Z" fill="#0D152E"/>
<path d="M44.5254 50.4429C44.5254 51.5474 43.63 52.4429 42.5254 52.4429C41.4208 52.4429 40.5254 51.5474 40.5254 50.4429C40.5254 49.3383 41.4208 48.4429 42.5254 48.4429C43.63 48.4429 44.5254 49.3383 44.5254 50.4429Z" fill="#0D152E"/>
<path d="M58.5254 52.4429C59.63 52.4429 60.5254 51.5474 60.5254 50.4429C60.5254 49.3383 59.63 48.4429 58.5254 48.4429C57.4208 48.4429 56.5254 49.3383 56.5254 50.4429C56.5254 51.5474 57.4208 52.4429 58.5254 52.4429Z" fill="#0D152E"/>
<path d="M76.5254 50.4429C76.5254 51.5474 75.63 52.4429 74.5254 52.4429C73.4208 52.4429 72.5254 51.5474 72.5254 50.4429C72.5254 49.3383 73.4208 48.4429 74.5254 48.4429C75.63 48.4429 76.5254 49.3383 76.5254 50.4429Z" fill="#0D152E"/>
<path d="M90.5254 52.4429C91.63 52.4429 92.5254 51.5474 92.5254 50.4429C92.5254 49.3383 91.63 48.4429 90.5254 48.4429C89.4208 48.4429 88.5254 49.3383 88.5254 50.4429C88.5254 51.5474 89.4208 52.4429 90.5254 52.4429Z" fill="#0D152E"/>
<path d="M26.5254 36.4429C27.63 36.4429 28.5254 35.5474 28.5254 34.4429C28.5254 33.3383 27.63 32.4429 26.5254 32.4429C25.4208 32.4429 24.5254 33.3383 24.5254 34.4429C24.5254 35.5474 25.4208 36.4429 26.5254 36.4429Z" fill="#0D152E"/>
<path d="M44.5254 34.4429C44.5254 35.5474 43.63 36.4429 42.5254 36.4429C41.4208 36.4429 40.5254 35.5474 40.5254 34.4429C40.5254 33.3383 41.4208 32.4429 42.5254 32.4429C43.63 32.4429 44.5254 33.3383 44.5254 34.4429Z" fill="#0D152E"/>
<path d="M58.5254 36.4429C59.63 36.4429 60.5254 35.5474 60.5254 34.4429C60.5254 33.3383 59.63 32.4429 58.5254 32.4429C57.4208 32.4429 56.5254 33.3383 56.5254 34.4429C56.5254 35.5474 57.4208 36.4429 58.5254 36.4429Z" fill="#0D152E"/>
<path d="M76.5254 34.4429C76.5254 35.5474 75.63 36.4429 74.5254 36.4429C73.4208 36.4429 72.5254 35.5474 72.5254 34.4429C72.5254 33.3383 73.4208 32.4429 74.5254 32.4429C75.63 32.4429 76.5254 33.3383 76.5254 34.4429Z" fill="#0D152E"/>
<path d="M90.5254 36.4429C91.63 36.4429 92.5254 35.5474 92.5254 34.4429C92.5254 33.3383 91.63 32.4429 90.5254 32.4429C89.4208 32.4429 88.5254 33.3383 88.5254 34.4429C88.5254 35.5474 89.4208 36.4429 90.5254 36.4429Z" fill="#0D152E"/>
<path d="M18.5254 4.44287C19.63 4.44287 20.5254 3.54744 20.5254 2.44287C20.5254 1.3383 19.63 0.442871 18.5254 0.442871C17.4208 0.442871 16.5254 1.3383 16.5254 2.44287C16.5254 3.54744 17.4208 4.44287 18.5254 4.44287Z" fill="#0D152E"/>
<path d="M108.525 34.4429C108.525 35.5474 107.63 36.4429 106.525 36.4429C105.421 36.4429 104.525 35.5474 104.525 34.4429C104.525 33.3383 105.421 32.4429 106.525 32.4429C107.63 32.4429 108.525 33.3383 108.525 34.4429Z" fill="#0D152E"/>
<path d="M106.525 52.4429C107.63 52.4429 108.525 51.5474 108.525 50.4429C108.525 49.3383 107.63 48.4429 106.525 48.4429C105.421 48.4429 104.525 49.3383 104.525 50.4429C104.525 51.5474 105.421 52.4429 106.525 52.4429Z" fill="#0D152E"/>
<path d="M122.525 52.4429C123.63 52.4429 124.525 51.5474 124.525 50.4429C124.525 49.3383 123.63 48.4429 122.525 48.4429C121.421 48.4429 120.525 49.3383 120.525 50.4429C120.525 51.5474 121.421 52.4429 122.525 52.4429Z" fill="#0D152E"/>
<path d="M140.525 50.4429C140.525 51.5474 139.63 52.4429 138.525 52.4429C137.421 52.4429 136.525 51.5474 136.525 50.4429C136.525 49.3383 137.421 48.4429 138.525 48.4429C139.63 48.4429 140.525 49.3383 140.525 50.4429Z" fill="#0D152E"/>
<path d="M154.525 52.4429C155.63 52.4429 156.525 51.5474 156.525 50.4429C156.525 49.3383 155.63 48.4429 154.525 48.4429C153.421 48.4429 152.525 49.3383 152.525 50.4429C152.525 51.5474 153.421 52.4429 154.525 52.4429Z" fill="#0D152E"/>
<path d="M172.525 50.4429C172.525 51.5474 171.63 52.4429 170.525 52.4429C169.421 52.4429 168.525 51.5474 168.525 50.4429C168.525 49.3383 169.421 48.4429 170.525 48.4429C171.63 48.4429 172.525 49.3383 172.525 50.4429Z" fill="#0D152E"/>
<path d="M186.525 52.4429C187.63 52.4429 188.525 51.5474 188.525 50.4429C188.525 49.3383 187.63 48.4429 186.525 48.4429C185.421 48.4429 184.525 49.3383 184.525 50.4429C184.525 51.5474 185.421 52.4429 186.525 52.4429Z" fill="#0D152E"/>
<path d="M122.525 36.4429C123.63 36.4429 124.525 35.5474 124.525 34.4429C124.525 33.3383 123.63 32.4429 122.525 32.4429C121.421 32.4429 120.525 33.3383 120.525 34.4429C120.525 35.5474 121.421 36.4429 122.525 36.4429Z" fill="#0D152E"/>
<path d="M140.525 34.4429C140.525 35.5474 139.63 36.4429 138.525 36.4429C137.421 36.4429 136.525 35.5474 136.525 34.4429C136.525 33.3383 137.421 32.4429 138.525 32.4429C139.63 32.4429 140.525 33.3383 140.525 34.4429Z" fill="#0D152E"/>
<path d="M154.525 36.4429C155.63 36.4429 156.525 35.5474 156.525 34.4429C156.525 33.3383 155.63 32.4429 154.525 32.4429C153.421 32.4429 152.525 33.3383 152.525 34.4429C152.525 35.5474 153.421 36.4429 154.525 36.4429Z" fill="#0D152E"/>
<path d="M172.525 34.4429C172.525 35.5474 171.63 36.4429 170.525 36.4429C169.421 36.4429 168.525 35.5474 168.525 34.4429C168.525 33.3383 169.421 32.4429 170.525 32.4429C171.63 32.4429 172.525 33.3383 172.525 34.4429Z" fill="#0D152E"/>
<path d="M186.525 36.4429C187.63 36.4429 188.525 35.5474 188.525 34.4429C188.525 33.3383 187.63 32.4429 186.525 32.4429C185.421 32.4429 184.525 33.3383 184.525 34.4429C184.525 35.5474 185.421 36.4429 186.525 36.4429Z" fill="#0D152E"/>
<path d="M34.5254 4.44287C35.63 4.44287 36.5254 3.54744 36.5254 2.44287C36.5254 1.3383 35.63 0.442871 34.5254 0.442871C33.4208 0.442871 32.5254 1.3383 32.5254 2.44287C32.5254 3.54744 33.4208 4.44287 34.5254 4.44287Z" fill="#0D152E"/>
<path d="M52.5254 2.44287C52.5254 3.54744 51.63 4.44287 50.5254 4.44287C49.4208 4.44287 48.5254 3.54744 48.5254 2.44287C48.5254 1.3383 49.4208 0.442871 50.5254 0.442871C51.63 0.442871 52.5254 1.3383 52.5254 2.44287Z" fill="#0D152E"/>
<path d="M66.5254 4.44287C67.63 4.44287 68.5254 3.54744 68.5254 2.44287C68.5254 1.3383 67.63 0.442871 66.5254 0.442871C65.4208 0.442871 64.5254 1.3383 64.5254 2.44287C64.5254 3.54744 65.4208 4.44287 66.5254 4.44287Z" fill="#0D152E"/>
<path d="M84.5254 2.44287C84.5254 3.54744 83.63 4.44287 82.5254 4.44287C81.4208 4.44287 80.5254 3.54744 80.5254 2.44287C80.5254 1.3383 81.4208 0.442871 82.5254 0.442871C83.63 0.442871 84.5254 1.3383 84.5254 2.44287Z" fill="#0D152E"/>
<path d="M108.525 66.4429C108.525 67.5474 107.63 68.4429 106.525 68.4429C105.421 68.4429 104.525 67.5474 104.525 66.4429C104.525 65.3383 105.421 64.4429 106.525 64.4429C107.63 64.4429 108.525 65.3383 108.525 66.4429Z" fill="#0D152E"/>
<path d="M106.525 84.4429C107.63 84.4429 108.525 83.5474 108.525 82.4429C108.525 81.3383 107.63 80.4429 106.525 80.4429C105.421 80.4429 104.525 81.3383 104.525 82.4429C104.525 83.5474 105.421 84.4429 106.525 84.4429Z" fill="#0D152E"/>
<path d="M122.525 84.4429C123.63 84.4429 124.525 83.5474 124.525 82.4429C124.525 81.3383 123.63 80.4429 122.525 80.4429C121.421 80.4429 120.525 81.3383 120.525 82.4429C120.525 83.5474 121.421 84.4429 122.525 84.4429Z" fill="#0D152E"/>
<path d="M140.525 82.4429C140.525 83.5474 139.63 84.4429 138.525 84.4429C137.421 84.4429 136.525 83.5474 136.525 82.4429C136.525 81.3383 137.421 80.4429 138.525 80.4429C139.63 80.4429 140.525 81.3383 140.525 82.4429Z" fill="#0D152E"/>
<path d="M154.525 84.4429C155.63 84.4429 156.525 83.5474 156.525 82.4429C156.525 81.3383 155.63 80.4429 154.525 80.4429C153.421 80.4429 152.525 81.3383 152.525 82.4429C152.525 83.5474 153.421 84.4429 154.525 84.4429Z" fill="#0D152E"/>
<path d="M172.525 82.4429C172.525 83.5474 171.63 84.4429 170.525 84.4429C169.421 84.4429 168.525 83.5474 168.525 82.4429C168.525 81.3383 169.421 80.4429 170.525 80.4429C171.63 80.4429 172.525 81.3383 172.525 82.4429Z" fill="#0D152E"/>
<path d="M186.525 84.4429C187.63 84.4429 188.525 83.5474 188.525 82.4429C188.525 81.3383 187.63 80.4429 186.525 80.4429C185.421 80.4429 184.525 81.3383 184.525 82.4429C184.525 83.5474 185.421 84.4429 186.525 84.4429Z" fill="#0D152E"/>
<path d="M122.525 68.4429C123.63 68.4429 124.525 67.5474 124.525 66.4429C124.525 65.3383 123.63 64.4429 122.525 64.4429C121.421 64.4429 120.525 65.3383 120.525 66.4429C120.525 67.5474 121.421 68.4429 122.525 68.4429Z" fill="#0D152E"/>
<path d="M140.525 66.4429C140.525 67.5474 139.63 68.4429 138.525 68.4429C137.421 68.4429 136.525 67.5474 136.525 66.4429C136.525 65.3383 137.421 64.4429 138.525 64.4429C139.63 64.4429 140.525 65.3383 140.525 66.4429Z" fill="#0D152E"/>
<path d="M154.525 68.4429C155.63 68.4429 156.525 67.5474 156.525 66.4429C156.525 65.3383 155.63 64.4429 154.525 64.4429C153.421 64.4429 152.525 65.3383 152.525 66.4429C152.525 67.5474 153.421 68.4429 154.525 68.4429Z" fill="#0D152E"/>
<path d="M172.525 66.4429C172.525 67.5474 171.63 68.4429 170.525 68.4429C169.421 68.4429 168.525 67.5474 168.525 66.4429C168.525 65.3383 169.421 64.4429 170.525 64.4429C171.63 64.4429 172.525 65.3383 172.525 66.4429Z" fill="#0D152E"/>
<path d="M186.525 68.4429C187.63 68.4429 188.525 67.5474 188.525 66.4429C188.525 65.3383 187.63 64.4429 186.525 64.4429C185.421 64.4429 184.525 65.3383 184.525 66.4429C184.525 67.5474 185.421 68.4429 186.525 68.4429Z" fill="#0D152E"/>
<path d="M2.52539 84.4429C3.62996 84.4429 4.52539 83.5474 4.52539 82.4429C4.52539 81.3383 3.62996 80.4429 2.52539 80.4429C1.42082 80.4429 0.525391 81.3383 0.525391 82.4429C0.525391 83.5474 1.42082 84.4429 2.52539 84.4429Z" fill="#0D152E"/>
<path d="M18.5254 84.4429C19.63 84.4429 20.5254 83.5474 20.5254 82.4429C20.5254 81.3383 19.63 80.4429 18.5254 80.4429C17.4208 80.4429 16.5254 81.3383 16.5254 82.4429C16.5254 83.5474 17.4208 84.4429 18.5254 84.4429Z" fill="#0D152E"/>
<path d="M36.5254 82.4429C36.5254 83.5474 35.63 84.4429 34.5254 84.4429C33.4208 84.4429 32.5254 83.5474 32.5254 82.4429C32.5254 81.3383 33.4208 80.4429 34.5254 80.4429C35.63 80.4429 36.5254 81.3383 36.5254 82.4429Z" fill="#0D152E"/>
<path d="M50.5254 84.4429C51.63 84.4429 52.5254 83.5474 52.5254 82.4429C52.5254 81.3383 51.63 80.4429 50.5254 80.4429C49.4208 80.4429 48.5254 81.3383 48.5254 82.4429C48.5254 83.5474 49.4208 84.4429 50.5254 84.4429Z" fill="#0D152E"/>
<path d="M68.5254 82.4429C68.5254 83.5474 67.63 84.4429 66.5254 84.4429C65.4208 84.4429 64.5254 83.5474 64.5254 82.4429C64.5254 81.3383 65.4208 80.4429 66.5254 80.4429C67.63 80.4429 68.5254 81.3383 68.5254 82.4429Z" fill="#0D152E"/>
<path d="M82.5254 84.4429C83.63 84.4429 84.5254 83.5474 84.5254 82.4429C84.5254 81.3383 83.63 80.4429 82.5254 80.4429C81.4208 80.4429 80.5254 81.3383 80.5254 82.4429C80.5254 83.5474 81.4208 84.4429 82.5254 84.4429Z" fill="#0D152E"/>
<path d="M2.52539 68.4429C3.62996 68.4429 4.52539 67.5474 4.52539 66.4429C4.52539 65.3383 3.62996 64.4429 2.52539 64.4429C1.42082 64.4429 0.525391 65.3383 0.525391 66.4429C0.525391 67.5474 1.42082 68.4429 2.52539 68.4429Z" fill="#0D152E"/>
<path d="M12.5254 98.4429C12.5254 99.5474 11.63 100.443 10.5254 100.443C9.42082 100.443 8.52539 99.5474 8.52539 98.4429C8.52539 97.3383 9.42082 96.4429 10.5254 96.4429C11.63 96.4429 12.5254 97.3383 12.5254 98.4429Z" fill="#0D152E"/>
<path d="M10.5254 116.443C11.63 116.443 12.5254 115.547 12.5254 114.443C12.5254 113.338 11.63 112.443 10.5254 112.443C9.42082 112.443 8.52539 113.338 8.52539 114.443C8.52539 115.547 9.42082 116.443 10.5254 116.443Z" fill="#0D152E"/>
<path d="M26.5254 116.443C27.63 116.443 28.5254 115.547 28.5254 114.443C28.5254 113.338 27.63 112.443 26.5254 112.443C25.4208 112.443 24.5254 113.338 24.5254 114.443C24.5254 115.547 25.4208 116.443 26.5254 116.443Z" fill="#0D152E"/>
<path d="M44.5254 114.443C44.5254 115.547 43.63 116.443 42.5254 116.443C41.4208 116.443 40.5254 115.547 40.5254 114.443C40.5254 113.338 41.4208 112.443 42.5254 112.443C43.63 112.443 44.5254 113.338 44.5254 114.443Z" fill="#0D152E"/>
<path d="M58.5254 116.443C59.63 116.443 60.5254 115.547 60.5254 114.443C60.5254 113.338 59.63 112.443 58.5254 112.443C57.4208 112.443 56.5254 113.338 56.5254 114.443C56.5254 115.547 57.4208 116.443 58.5254 116.443Z" fill="#0D152E"/>
<path d="M76.5254 114.443C76.5254 115.547 75.63 116.443 74.5254 116.443C73.4208 116.443 72.5254 115.547 72.5254 114.443C72.5254 113.338 73.4208 112.443 74.5254 112.443C75.63 112.443 76.5254 113.338 76.5254 114.443Z" fill="#0D152E"/>
<path d="M90.5254 116.443C91.63 116.443 92.5254 115.547 92.5254 114.443C92.5254 113.338 91.63 112.443 90.5254 112.443C89.4208 112.443 88.5254 113.338 88.5254 114.443C88.5254 115.547 89.4208 116.443 90.5254 116.443Z" fill="#0D152E"/>
<path d="M26.5254 100.443C27.63 100.443 28.5254 99.5474 28.5254 98.4429C28.5254 97.3383 27.63 96.4429 26.5254 96.4429C25.4208 96.4429 24.5254 97.3383 24.5254 98.4429C24.5254 99.5474 25.4208 100.443 26.5254 100.443Z" fill="#0D152E"/>
<path d="M44.5254 98.4429C44.5254 99.5474 43.63 100.443 42.5254 100.443C41.4208 100.443 40.5254 99.5474 40.5254 98.4429C40.5254 97.3383 41.4208 96.4429 42.5254 96.4429C43.63 96.4429 44.5254 97.3383 44.5254 98.4429Z" fill="#0D152E"/>
<path d="M58.5254 100.443C59.63 100.443 60.5254 99.5474 60.5254 98.4429C60.5254 97.3383 59.63 96.4429 58.5254 96.4429C57.4208 96.4429 56.5254 97.3383 56.5254 98.4429C56.5254 99.5474 57.4208 100.443 58.5254 100.443Z" fill="#0D152E"/>
<path d="M76.5254 98.4429C76.5254 99.5474 75.63 100.443 74.5254 100.443C73.4208 100.443 72.5254 99.5474 72.5254 98.4429C72.5254 97.3383 73.4208 96.4429 74.5254 96.4429C75.63 96.4429 76.5254 97.3383 76.5254 98.4429Z" fill="#0D152E"/>
<path d="M90.5254 100.443C91.63 100.443 92.5254 99.5474 92.5254 98.4429C92.5254 97.3383 91.63 96.4429 90.5254 96.4429C89.4208 96.4429 88.5254 97.3383 88.5254 98.4429C88.5254 99.5474 89.4208 100.443 90.5254 100.443Z" fill="#0D152E"/>
<path d="M18.5254 68.4429C19.63 68.4429 20.5254 67.5474 20.5254 66.4429C20.5254 65.3383 19.63 64.4429 18.5254 64.4429C17.4208 64.4429 16.5254 65.3383 16.5254 66.4429C16.5254 67.5474 17.4208 68.4429 18.5254 68.4429Z" fill="#0D152E"/>
<path d="M108.525 98.4429C108.525 99.5474 107.63 100.443 106.525 100.443C105.421 100.443 104.525 99.5474 104.525 98.4429C104.525 97.3383 105.421 96.4429 106.525 96.4429C107.63 96.4429 108.525 97.3383 108.525 98.4429Z" fill="#0D152E"/>
<path d="M106.525 116.443C107.63 116.443 108.525 115.547 108.525 114.443C108.525 113.338 107.63 112.443 106.525 112.443C105.421 112.443 104.525 113.338 104.525 114.443C104.525 115.547 105.421 116.443 106.525 116.443Z" fill="#0D152E"/>
<path d="M122.525 116.443C123.63 116.443 124.525 115.547 124.525 114.443C124.525 113.338 123.63 112.443 122.525 112.443C121.421 112.443 120.525 113.338 120.525 114.443C120.525 115.547 121.421 116.443 122.525 116.443Z" fill="#0D152E"/>
<path d="M140.525 114.443C140.525 115.547 139.63 116.443 138.525 116.443C137.421 116.443 136.525 115.547 136.525 114.443C136.525 113.338 137.421 112.443 138.525 112.443C139.63 112.443 140.525 113.338 140.525 114.443Z" fill="#0D152E"/>
<path d="M154.525 116.443C155.63 116.443 156.525 115.547 156.525 114.443C156.525 113.338 155.63 112.443 154.525 112.443C153.421 112.443 152.525 113.338 152.525 114.443C152.525 115.547 153.421 116.443 154.525 116.443Z" fill="#0D152E"/>
<path d="M172.525 114.443C172.525 115.547 171.63 116.443 170.525 116.443C169.421 116.443 168.525 115.547 168.525 114.443C168.525 113.338 169.421 112.443 170.525 112.443C171.63 112.443 172.525 113.338 172.525 114.443Z" fill="#0D152E"/>
<path d="M186.525 116.443C187.63 116.443 188.525 115.547 188.525 114.443C188.525 113.338 187.63 112.443 186.525 112.443C185.421 112.443 184.525 113.338 184.525 114.443C184.525 115.547 185.421 116.443 186.525 116.443Z" fill="#0D152E"/>
<path d="M122.525 100.443C123.63 100.443 124.525 99.5474 124.525 98.4429C124.525 97.3383 123.63 96.4429 122.525 96.4429C121.421 96.4429 120.525 97.3383 120.525 98.4429C120.525 99.5474 121.421 100.443 122.525 100.443Z" fill="#0D152E"/>
<path d="M140.525 98.4429C140.525 99.5474 139.63 100.443 138.525 100.443C137.421 100.443 136.525 99.5474 136.525 98.4429C136.525 97.3383 137.421 96.4429 138.525 96.4429C139.63 96.4429 140.525 97.3383 140.525 98.4429Z" fill="#0D152E"/>
<path d="M154.525 100.443C155.63 100.443 156.525 99.5474 156.525 98.4429C156.525 97.3383 155.63 96.4429 154.525 96.4429C153.421 96.4429 152.525 97.3383 152.525 98.4429C152.525 99.5474 153.421 100.443 154.525 100.443Z" fill="#0D152E"/>
<path d="M172.525 98.4429C172.525 99.5474 171.63 100.443 170.525 100.443C169.421 100.443 168.525 99.5474 168.525 98.4429C168.525 97.3383 169.421 96.4429 170.525 96.4429C171.63 96.4429 172.525 97.3383 172.525 98.4429Z" fill="#0D152E"/>
<path d="M186.525 100.443C187.63 100.443 188.525 99.5474 188.525 98.4429C188.525 97.3383 187.63 96.4429 186.525 96.4429C185.421 96.4429 184.525 97.3383 184.525 98.4429C184.525 99.5474 185.421 100.443 186.525 100.443Z" fill="#0D152E"/>
<path d="M34.5254 68.4429C35.63 68.4429 36.5254 67.5474 36.5254 66.4429C36.5254 65.3383 35.63 64.4429 34.5254 64.4429C33.4208 64.4429 32.5254 65.3383 32.5254 66.4429C32.5254 67.5474 33.4208 68.4429 34.5254 68.4429Z" fill="#0D152E"/>
<path d="M52.5254 66.4429C52.5254 67.5474 51.63 68.4429 50.5254 68.4429C49.4208 68.4429 48.5254 67.5474 48.5254 66.4429C48.5254 65.3383 49.4208 64.4429 50.5254 64.4429C51.63 64.4429 52.5254 65.3383 52.5254 66.4429Z" fill="#0D152E"/>
<path d="M66.5254 68.4429C67.63 68.4429 68.5254 67.5474 68.5254 66.4429C68.5254 65.3383 67.63 64.4429 66.5254 64.4429C65.4208 64.4429 64.5254 65.3383 64.5254 66.4429C64.5254 67.5474 65.4208 68.4429 66.5254 68.4429Z" fill="#0D152E"/>
<path d="M84.5254 66.4429C84.5254 67.5474 83.63 68.4429 82.5254 68.4429C81.4208 68.4429 80.5254 67.5474 80.5254 66.4429C80.5254 65.3383 81.4208 64.4429 82.5254 64.4429C83.63 64.4429 84.5254 65.3383 84.5254 66.4429Z" fill="#0D152E"/>
</g>
</svg>
